<mxfile host="app.diagrams.net" modified="2020-10-17T05:27:09.959Z" agent="5.0 (Windows NT 6.1; Win64; x64) AppleWebKit/537.36 (KHTML, like Gecko) Chrome/86.0.4240.75 Safari/537.36" etag="kbS3HzzHfx2oMRerCyY-" version="13.8.0" type="github">
  <diagram name="Page-1" id="efa7a0a1-bf9b-a30e-e6df-94a7791c09e9">
    <mxGraphModel dx="276" dy="579" grid="1" gridSize="10" guides="1" tooltips="1" connect="1" arrows="1" fold="1" page="1" pageScale="1" pageWidth="826" pageHeight="1169" background="#114B5F" math="0" shadow="0">
      <root>
        <mxCell id="0" />
        <mxCell id="1" parent="0" />
        <mxCell id="LrkCpZyogZbtY8giZStI-117" style="edgeStyle=orthogonalEdgeStyle;rounded=0;orthogonalLoop=1;jettySize=auto;html=1;exitX=1.001;exitY=0.201;exitDx=0;exitDy=0;entryX=0;entryY=0.5;entryDx=0;entryDy=0;strokeColor=#FFFF33;exitPerimeter=0;" edge="1" parent="1" source="cujy5i5652VeWYE1hkL4-114" target="cujy5i5652VeWYE1hkL4-124">
          <mxGeometry relative="1" as="geometry" />
        </mxCell>
        <mxCell id="cujy5i5652VeWYE1hkL4-114" value="&lt;p style=&quot;margin: 0px ; margin-top: 4px ; text-align: center ; text-decoration: underline&quot;&gt;&lt;b&gt;InfoDB&lt;/b&gt;&lt;/p&gt;&lt;hr&gt;&lt;p style=&quot;margin: 0px ; margin-left: 8px&quot;&gt;Id&lt;/p&gt;&lt;p style=&quot;margin: 0px ; margin-left: 8px&quot;&gt;Phone&lt;/p&gt;&lt;p style=&quot;margin: 0px ; margin-left: 8px&quot;&gt;&lt;br&gt;&lt;/p&gt;" style="verticalAlign=top;align=left;overflow=fill;fontSize=12;fontFamily=Helvetica;html=1;strokeColor=#028090;shadow=1;fillColor=#F45B69;fontColor=#E4FDE1;" parent="1" vertex="1">
          <mxGeometry x="1560" y="399.99999999999994" width="160" height="200" as="geometry" />
        </mxCell>
        <mxCell id="cujy5i5652VeWYE1hkL4-115" value="&lt;p style=&quot;margin: 0px ; margin-top: 4px ; text-align: center ; text-decoration: underline&quot;&gt;&lt;b&gt;CheckScript&lt;/b&gt;&lt;/p&gt;&lt;hr&gt;&lt;p style=&quot;margin: 0px ; margin-left: 8px&quot;&gt;getPhoneAdress()&lt;/p&gt;&lt;p style=&quot;margin: 0px ; margin-left: 8px&quot;&gt;checkPhone()&lt;/p&gt;&lt;p style=&quot;margin: 0px ; margin-left: 8px&quot;&gt;setDataToDB()&lt;/p&gt;" style="verticalAlign=top;align=left;overflow=fill;fontSize=12;fontFamily=Helvetica;html=1;strokeColor=#028090;shadow=1;fillColor=#F45B69;fontColor=#E4FDE1;" parent="1" vertex="1">
          <mxGeometry x="1360.0000000000002" y="190.0000000000001" width="160" height="130" as="geometry" />
        </mxCell>
        <mxCell id="cujy5i5652VeWYE1hkL4-120" value="&lt;p style=&quot;margin: 0px ; margin-top: 4px ; text-align: center ; text-decoration: underline&quot;&gt;&lt;b&gt;Links&lt;/b&gt;&lt;/p&gt;&lt;hr&gt;&lt;p style=&quot;margin: 0px ; margin-left: 8px&quot;&gt;Id&lt;/p&gt;&lt;p style=&quot;margin: 0px ; margin-left: 8px&quot;&gt;Link&lt;/p&gt;" style="verticalAlign=top;align=left;overflow=fill;fontSize=12;fontFamily=Helvetica;html=1;strokeColor=#028090;shadow=1;fillColor=#F45B69;fontColor=#E4FDE1;" parent="1" vertex="1">
          <mxGeometry x="1960" y="520" width="160" height="80" as="geometry" />
        </mxCell>
        <mxCell id="cujy5i5652VeWYE1hkL4-121" value="&lt;p style=&quot;margin: 0px ; margin-top: 4px ; text-align: center ; text-decoration: underline&quot;&gt;&lt;b&gt;OwnersId&lt;/b&gt;&lt;/p&gt;&lt;hr&gt;&lt;p style=&quot;margin: 0px ; margin-left: 8px&quot;&gt;Id&lt;/p&gt;&lt;p style=&quot;margin: 0px ; margin-left: 8px&quot;&gt;OwnerId&lt;/p&gt;" style="verticalAlign=top;align=left;overflow=fill;fontSize=12;fontFamily=Helvetica;html=1;strokeColor=#028090;shadow=1;fillColor=#F45B69;fontColor=#E4FDE1;" parent="1" vertex="1">
          <mxGeometry x="1160" y="400" width="160" height="80" as="geometry" />
        </mxCell>
        <mxCell id="cujy5i5652VeWYE1hkL4-122" value="&lt;p style=&quot;margin: 0px ; margin-top: 4px ; text-align: center ; text-decoration: underline&quot;&gt;&lt;b&gt;InfoDBOwnersId&lt;/b&gt;&lt;/p&gt;&lt;hr&gt;&lt;p style=&quot;margin: 0px ; margin-left: 8px&quot;&gt;Id&lt;/p&gt;&lt;p style=&quot;margin: 0px ; margin-left: 8px&quot;&gt;InfoDBId&lt;/p&gt;&lt;p style=&quot;margin: 0px ; margin-left: 8px&quot;&gt;OwnerId&lt;/p&gt;" style="verticalAlign=top;align=left;overflow=fill;fontSize=12;fontFamily=Helvetica;html=1;strokeColor=#028090;shadow=1;fillColor=#F45B69;fontColor=#E4FDE1;" parent="1" vertex="1">
          <mxGeometry x="1360" y="400" width="160" height="80" as="geometry" />
        </mxCell>
        <mxCell id="cujy5i5652VeWYE1hkL4-123" value="&lt;p style=&quot;margin: 0px ; margin-top: 4px ; text-align: center ; text-decoration: underline&quot;&gt;&lt;b&gt;InfoDBLinks&lt;/b&gt;&lt;/p&gt;&lt;hr&gt;&lt;p style=&quot;margin: 0px ; margin-left: 8px&quot;&gt;Id&lt;/p&gt;&lt;p style=&quot;margin: 0px ; margin-left: 8px&quot;&gt;InfoDBId&lt;/p&gt;&lt;p style=&quot;margin: 0px ; margin-left: 8px&quot;&gt;LinkId&lt;/p&gt;" style="verticalAlign=top;align=left;overflow=fill;fontSize=12;fontFamily=Helvetica;html=1;strokeColor=#028090;shadow=1;fillColor=#F45B69;fontColor=#E4FDE1;" parent="1" vertex="1">
          <mxGeometry x="1760" y="520" width="160" height="80" as="geometry" />
        </mxCell>
        <mxCell id="cujy5i5652VeWYE1hkL4-124" value="&lt;p style=&quot;margin: 0px ; margin-top: 4px ; text-align: center ; text-decoration: underline&quot;&gt;&lt;b&gt;InfoDBAdresses&lt;/b&gt;&lt;/p&gt;&lt;hr&gt;&lt;p style=&quot;margin: 0px ; margin-left: 8px&quot;&gt;Id&lt;/p&gt;&lt;p style=&quot;margin: 0px ; margin-left: 8px&quot;&gt;InfoDBId&lt;/p&gt;&lt;p style=&quot;margin: 0px ; margin-left: 8px&quot;&gt;AddressId&lt;/p&gt;" style="verticalAlign=top;align=left;overflow=fill;fontSize=12;fontFamily=Helvetica;html=1;strokeColor=#028090;shadow=1;fillColor=#F45B69;fontColor=#E4FDE1;" parent="1" vertex="1">
          <mxGeometry x="1760" y="400" width="160" height="80" as="geometry" />
        </mxCell>
        <mxCell id="cujy5i5652VeWYE1hkL4-125" value="&lt;p style=&quot;margin: 0px ; margin-top: 4px ; text-align: center ; text-decoration: underline&quot;&gt;&lt;b&gt;Addresses&lt;/b&gt;&lt;/p&gt;&lt;hr&gt;&lt;p style=&quot;margin: 0px ; margin-left: 8px&quot;&gt;Id&lt;/p&gt;&lt;p style=&quot;margin: 0px ; margin-left: 8px&quot;&gt;Address&lt;/p&gt;" style="verticalAlign=top;align=left;overflow=fill;fontSize=12;fontFamily=Helvetica;html=1;strokeColor=#028090;shadow=1;fillColor=#F45B69;fontColor=#E4FDE1;" parent="1" vertex="1">
          <mxGeometry x="1960" y="400" width="160" height="80" as="geometry" />
        </mxCell>
        <mxCell id="cujy5i5652VeWYE1hkL4-127" value="&lt;p style=&quot;margin: 0px ; margin-top: 4px ; text-align: center ; text-decoration: underline&quot;&gt;&lt;b&gt;InfoDBPricesId&lt;/b&gt;&lt;/p&gt;&lt;hr&gt;&lt;p style=&quot;margin: 0px ; margin-left: 8px&quot;&gt;Id&lt;/p&gt;&lt;p style=&quot;margin: 0px ; margin-left: 8px&quot;&gt;InfoDBId&lt;/p&gt;&lt;p style=&quot;margin: 0px ; margin-left: 8px&quot;&gt;PriceId&lt;/p&gt;" style="verticalAlign=top;align=left;overflow=fill;fontSize=12;fontFamily=Helvetica;html=1;strokeColor=#028090;shadow=1;fillColor=#F45B69;fontColor=#E4FDE1;" parent="1" vertex="1">
          <mxGeometry x="1360" y="520" width="160" height="80" as="geometry" />
        </mxCell>
        <mxCell id="cujy5i5652VeWYE1hkL4-128" value="&lt;p style=&quot;margin: 0px ; margin-top: 4px ; text-align: center ; text-decoration: underline&quot;&gt;&lt;b&gt;Prices&lt;/b&gt;&lt;/p&gt;&lt;hr&gt;&lt;p style=&quot;margin: 0px ; margin-left: 8px&quot;&gt;Id&lt;/p&gt;&lt;p style=&quot;margin: 0px ; margin-left: 8px&quot;&gt;Price&lt;/p&gt;&lt;p style=&quot;margin: 0px ; margin-left: 8px&quot;&gt;&lt;br&gt;&lt;/p&gt;" style="verticalAlign=top;align=left;overflow=fill;fontSize=12;fontFamily=Helvetica;html=1;strokeColor=#028090;shadow=1;fillColor=#F45B69;fontColor=#E4FDE1;" parent="1" vertex="1">
          <mxGeometry x="1160" y="520" width="160" height="80" as="geometry" />
        </mxCell>
        <mxCell id="LrkCpZyogZbtY8giZStI-114" value="&lt;p style=&quot;margin: 0px ; margin-top: 4px ; text-align: center ; text-decoration: underline&quot;&gt;&lt;b&gt;InfoDBBlackPhonesId&lt;/b&gt;&lt;/p&gt;&lt;hr&gt;&lt;p style=&quot;margin: 0px ; margin-left: 8px&quot;&gt;Id&lt;/p&gt;&lt;p style=&quot;margin: 0px ; margin-left: 8px&quot;&gt;InfoDBId&lt;/p&gt;&lt;p style=&quot;margin: 0px ; margin-left: 8px&quot;&gt;BlackPhonesId&lt;/p&gt;" style="verticalAlign=top;align=left;overflow=fill;fontSize=12;fontFamily=Helvetica;html=1;strokeColor=#028090;shadow=1;fillColor=#F45B69;fontColor=#E4FDE1;" vertex="1" parent="1">
          <mxGeometry x="1560" y="636.96" width="160" height="80" as="geometry" />
        </mxCell>
        <mxCell id="LrkCpZyogZbtY8giZStI-115" value="&lt;p style=&quot;margin: 0px ; margin-top: 4px ; text-align: center ; text-decoration: underline&quot;&gt;&lt;b&gt;BlackPhones&lt;/b&gt;&lt;/p&gt;&lt;hr&gt;&lt;p style=&quot;margin: 0px ; margin-left: 8px&quot;&gt;Id&lt;/p&gt;&lt;p style=&quot;margin: 0px ; margin-left: 8px&quot;&gt;BlackPhone&lt;/p&gt;" style="verticalAlign=top;align=left;overflow=fill;fontSize=12;fontFamily=Helvetica;html=1;strokeColor=#028090;shadow=1;fillColor=#F45B69;fontColor=#E4FDE1;" vertex="1" parent="1">
          <mxGeometry x="1560" y="760" width="160" height="80" as="geometry" />
        </mxCell>
        <mxCell id="LrkCpZyogZbtY8giZStI-116" value="&lt;p style=&quot;margin: 0px ; margin-top: 4px ; text-align: center ; text-decoration: underline&quot;&gt;&lt;b&gt;GetScript&lt;/b&gt;&lt;/p&gt;&lt;hr&gt;&lt;p style=&quot;margin: 0px ; margin-left: 8px&quot;&gt;getDBData()&lt;/p&gt;&lt;p style=&quot;margin: 0px ; margin-left: 8px&quot;&gt;sendToSite()&lt;/p&gt;" style="verticalAlign=top;align=left;overflow=fill;fontSize=12;fontFamily=Helvetica;html=1;strokeColor=#028090;shadow=1;fillColor=#F45B69;fontColor=#E4FDE1;" vertex="1" parent="1">
          <mxGeometry x="1760" y="190.0000000000001" width="160" height="130" as="geometry" />
        </mxCell>
        <mxCell id="LrkCpZyogZbtY8giZStI-121" style="edgeStyle=orthogonalEdgeStyle;rounded=0;orthogonalLoop=1;jettySize=auto;html=1;exitX=1;exitY=0.5;exitDx=0;exitDy=0;entryX=0;entryY=0.5;entryDx=0;entryDy=0;strokeColor=#FFFF33;" edge="1" parent="1" source="cujy5i5652VeWYE1hkL4-124" target="cujy5i5652VeWYE1hkL4-125">
          <mxGeometry relative="1" as="geometry">
            <mxPoint x="1872" y="490" as="sourcePoint" />
            <mxPoint x="1909.92" y="490.32000000000005" as="targetPoint" />
            <Array as="points">
              <mxPoint x="1940" y="440" />
              <mxPoint x="1940" y="440" />
            </Array>
          </mxGeometry>
        </mxCell>
        <mxCell id="LrkCpZyogZbtY8giZStI-122" style="edgeStyle=orthogonalEdgeStyle;rounded=0;orthogonalLoop=1;jettySize=auto;html=1;exitX=1.016;exitY=0.792;exitDx=0;exitDy=0;strokeColor=#FFFF33;exitPerimeter=0;" edge="1" parent="1" source="cujy5i5652VeWYE1hkL4-114">
          <mxGeometry relative="1" as="geometry">
            <mxPoint x="1770" y="500" as="sourcePoint" />
            <mxPoint x="1760" y="558" as="targetPoint" />
          </mxGeometry>
        </mxCell>
        <mxCell id="LrkCpZyogZbtY8giZStI-124" style="edgeStyle=orthogonalEdgeStyle;rounded=0;orthogonalLoop=1;jettySize=auto;html=1;entryX=0;entryY=0.5;entryDx=0;entryDy=0;strokeColor=#FFFF33;" edge="1" parent="1" target="cujy5i5652VeWYE1hkL4-120">
          <mxGeometry relative="1" as="geometry">
            <mxPoint x="1920" y="560" as="sourcePoint" />
            <mxPoint x="1817.92" y="510.32000000000005" as="targetPoint" />
          </mxGeometry>
        </mxCell>
        <mxCell id="LrkCpZyogZbtY8giZStI-126" style="edgeStyle=orthogonalEdgeStyle;rounded=0;orthogonalLoop=1;jettySize=auto;html=1;exitX=0.5;exitY=1;exitDx=0;exitDy=0;strokeColor=#FFFF33;entryX=0.5;entryY=0;entryDx=0;entryDy=0;" edge="1" parent="1" source="cujy5i5652VeWYE1hkL4-114" target="LrkCpZyogZbtY8giZStI-114">
          <mxGeometry relative="1" as="geometry">
            <mxPoint x="1732.56" y="568.4" as="sourcePoint" />
            <mxPoint x="1770" y="568" as="targetPoint" />
          </mxGeometry>
        </mxCell>
        <mxCell id="LrkCpZyogZbtY8giZStI-127" style="edgeStyle=orthogonalEdgeStyle;rounded=0;orthogonalLoop=1;jettySize=auto;html=1;exitX=0.5;exitY=1;exitDx=0;exitDy=0;strokeColor=#FFFF33;entryX=0.5;entryY=0;entryDx=0;entryDy=0;" edge="1" parent="1" source="LrkCpZyogZbtY8giZStI-114" target="LrkCpZyogZbtY8giZStI-115">
          <mxGeometry relative="1" as="geometry">
            <mxPoint x="1742.56" y="578.4" as="sourcePoint" />
            <mxPoint x="1780" y="578" as="targetPoint" />
          </mxGeometry>
        </mxCell>
        <mxCell id="LrkCpZyogZbtY8giZStI-128" style="edgeStyle=orthogonalEdgeStyle;rounded=0;orthogonalLoop=1;jettySize=auto;html=1;strokeColor=#FFFF33;entryX=1;entryY=0.5;entryDx=0;entryDy=0;" edge="1" parent="1" target="cujy5i5652VeWYE1hkL4-127">
          <mxGeometry relative="1" as="geometry">
            <mxPoint x="1561" y="560" as="sourcePoint" />
            <mxPoint x="1790" y="588" as="targetPoint" />
          </mxGeometry>
        </mxCell>
        <mxCell id="LrkCpZyogZbtY8giZStI-129" style="edgeStyle=orthogonalEdgeStyle;rounded=0;orthogonalLoop=1;jettySize=auto;html=1;strokeColor=#FFFF33;entryX=1;entryY=0.5;entryDx=0;entryDy=0;" edge="1" parent="1" target="cujy5i5652VeWYE1hkL4-122">
          <mxGeometry relative="1" as="geometry">
            <mxPoint x="1560" y="440" as="sourcePoint" />
            <mxPoint x="1800" y="598" as="targetPoint" />
          </mxGeometry>
        </mxCell>
        <mxCell id="LrkCpZyogZbtY8giZStI-131" style="edgeStyle=orthogonalEdgeStyle;rounded=0;orthogonalLoop=1;jettySize=auto;html=1;strokeColor=#FFFF33;entryX=1;entryY=0.5;entryDx=0;entryDy=0;" edge="1" parent="1" target="cujy5i5652VeWYE1hkL4-121">
          <mxGeometry relative="1" as="geometry">
            <mxPoint x="1360" y="440" as="sourcePoint" />
            <mxPoint x="1530" y="450" as="targetPoint" />
          </mxGeometry>
        </mxCell>
        <mxCell id="LrkCpZyogZbtY8giZStI-132" style="edgeStyle=orthogonalEdgeStyle;rounded=0;orthogonalLoop=1;jettySize=auto;html=1;strokeColor=#FFFF33;entryX=1;entryY=0.5;entryDx=0;entryDy=0;exitX=0;exitY=0.5;exitDx=0;exitDy=0;" edge="1" parent="1" source="cujy5i5652VeWYE1hkL4-127" target="cujy5i5652VeWYE1hkL4-128">
          <mxGeometry relative="1" as="geometry">
            <mxPoint x="1370" y="450" as="sourcePoint" />
            <mxPoint x="1330" y="450" as="targetPoint" />
            <Array as="points">
              <mxPoint x="1360" y="560" />
              <mxPoint x="1360" y="560" />
            </Array>
          </mxGeometry>
        </mxCell>
        <mxCell id="LrkCpZyogZbtY8giZStI-133" style="edgeStyle=orthogonalEdgeStyle;rounded=0;orthogonalLoop=1;jettySize=auto;html=1;strokeColor=#FFFF33;entryX=0.75;entryY=0;entryDx=0;entryDy=0;exitX=0.5;exitY=1;exitDx=0;exitDy=0;startArrow=classic;startFill=1;" edge="1" parent="1" source="LrkCpZyogZbtY8giZStI-116" target="cujy5i5652VeWYE1hkL4-114">
          <mxGeometry relative="1" as="geometry">
            <mxPoint x="1570" y="450" as="sourcePoint" />
            <mxPoint x="1530" y="450" as="targetPoint" />
          </mxGeometry>
        </mxCell>
        <mxCell id="LrkCpZyogZbtY8giZStI-134" style="edgeStyle=orthogonalEdgeStyle;rounded=0;orthogonalLoop=1;jettySize=auto;html=1;strokeColor=#FFFF33;entryX=0.25;entryY=0;entryDx=0;entryDy=0;exitX=0.5;exitY=1;exitDx=0;exitDy=0;startArrow=classic;startFill=1;" edge="1" parent="1" source="cujy5i5652VeWYE1hkL4-115" target="cujy5i5652VeWYE1hkL4-114">
          <mxGeometry relative="1" as="geometry">
            <mxPoint x="1580" y="460" as="sourcePoint" />
            <mxPoint x="1540" y="460" as="targetPoint" />
          </mxGeometry>
        </mxCell>
        <mxCell id="LrkCpZyogZbtY8giZStI-135" value="&lt;p style=&quot;margin: 0px ; margin-top: 4px ; text-align: center ; text-decoration: underline&quot;&gt;&lt;b&gt;CheckDBState&lt;/b&gt;&lt;/p&gt;&lt;hr&gt;&lt;p style=&quot;margin: 0px ; margin-left: 8px&quot;&gt;IsDBFull()&lt;/p&gt;&lt;p style=&quot;margin: 0px ; margin-left: 8px&quot;&gt;eraseExtraData()&lt;/p&gt;&lt;p style=&quot;margin: 0px ; margin-left: 8px&quot;&gt;&lt;br&gt;&lt;/p&gt;" style="verticalAlign=top;align=left;overflow=fill;fontSize=12;fontFamily=Helvetica;html=1;strokeColor=#028090;shadow=1;fillColor=#F45B69;fontColor=#E4FDE1;" vertex="1" parent="1">
          <mxGeometry x="1560.0000000000002" y="190.0000000000001" width="160" height="130" as="geometry" />
        </mxCell>
        <mxCell id="LrkCpZyogZbtY8giZStI-136" style="edgeStyle=orthogonalEdgeStyle;rounded=0;orthogonalLoop=1;jettySize=auto;html=1;strokeColor=#FFFF33;entryX=0.5;entryY=0;entryDx=0;entryDy=0;exitX=0.5;exitY=1;exitDx=0;exitDy=0;startArrow=classic;startFill=1;" edge="1" parent="1" source="LrkCpZyogZbtY8giZStI-135" target="cujy5i5652VeWYE1hkL4-114">
          <mxGeometry relative="1" as="geometry">
            <mxPoint x="1850" y="330.0000000000001" as="sourcePoint" />
            <mxPoint x="1690" y="410" as="targetPoint" />
          </mxGeometry>
        </mxCell>
      </root>
    </mxGraphModel>
  </diagram>
</mxfile>
